<mxfile host="Electron" modified="2023-09-28T09:54:23.684Z" agent="Mozilla/5.0 (X11; Linux x86_64) AppleWebKit/537.36 (KHTML, like Gecko) draw.io/21.7.5 Chrome/114.0.5735.289 Electron/25.8.1 Safari/537.36" etag="oLZNc29Qc6AXIbczNX1H" version="21.7.5" type="device">
  <diagram name="Page-1" id="2YBvvXClWsGukQMizWep">
    <mxGraphModel dx="2524" dy="1970" grid="1" gridSize="10" guides="1" tooltips="1" connect="1" arrows="1" fold="1" page="1" pageScale="1" pageWidth="850" pageHeight="1100" math="0" shadow="0">
      <root>
        <mxCell id="0" />
        <mxCell id="1" parent="0" />
        <mxCell id="JWJZoj7f2KtCbUOrZRci-18" value="" style="shape=umlLifeline;perimeter=lifelinePerimeter;whiteSpace=wrap;html=1;container=1;dropTarget=0;collapsible=0;recursiveResize=0;outlineConnect=0;portConstraint=eastwest;newEdgeStyle={&quot;curved&quot;:0,&quot;rounded&quot;:0};participant=umlActor;" parent="1" vertex="1">
          <mxGeometry x="-630" y="-968" width="20" height="810" as="geometry" />
        </mxCell>
        <mxCell id="JWJZoj7f2KtCbUOrZRci-37" value="" style="html=1;points=[[0,0,0,0,5],[0,1,0,0,-5],[1,0,0,0,5],[1,1,0,0,-5]];perimeter=orthogonalPerimeter;outlineConnect=0;targetShapes=umlLifeline;portConstraint=eastwest;newEdgeStyle={&quot;curved&quot;:0,&quot;rounded&quot;:0};" parent="JWJZoj7f2KtCbUOrZRci-18" vertex="1">
          <mxGeometry x="5" y="60" width="10" height="610" as="geometry" />
        </mxCell>
        <mxCell id="JWJZoj7f2KtCbUOrZRci-19" value="System" style="shape=umlLifeline;perimeter=lifelinePerimeter;whiteSpace=wrap;html=1;container=1;dropTarget=0;collapsible=0;recursiveResize=0;outlineConnect=0;portConstraint=eastwest;newEdgeStyle={&quot;curved&quot;:0,&quot;rounded&quot;:0};" parent="1" vertex="1">
          <mxGeometry x="-450" y="-968" width="100" height="810" as="geometry" />
        </mxCell>
        <mxCell id="JWJZoj7f2KtCbUOrZRci-38" value="" style="html=1;points=[[0,0,0,0,5],[0,1,0,0,-5],[1,0,0,0,5],[1,1,0,0,-5]];perimeter=orthogonalPerimeter;outlineConnect=0;targetShapes=umlLifeline;portConstraint=eastwest;newEdgeStyle={&quot;curved&quot;:0,&quot;rounded&quot;:0};" parent="JWJZoj7f2KtCbUOrZRci-19" vertex="1">
          <mxGeometry x="45" y="60" width="10" height="740" as="geometry" />
        </mxCell>
        <mxCell id="JWJZoj7f2KtCbUOrZRci-39" value="" style="html=1;points=[[0,0,0,0,5],[0,1,0,0,-5],[1,0,0,0,5],[1,1,0,0,-5]];perimeter=orthogonalPerimeter;outlineConnect=0;targetShapes=umlLifeline;portConstraint=eastwest;newEdgeStyle={&quot;curved&quot;:0,&quot;rounded&quot;:0};" parent="JWJZoj7f2KtCbUOrZRci-19" vertex="1">
          <mxGeometry x="55" y="70" width="10" height="60" as="geometry" />
        </mxCell>
        <mxCell id="JWJZoj7f2KtCbUOrZRci-40" value="Vérification" style="html=1;align=left;spacingLeft=2;endArrow=block;rounded=0;edgeStyle=orthogonalEdgeStyle;curved=0;rounded=0;exitX=1;exitY=0;exitDx=0;exitDy=5;exitPerimeter=0;" parent="JWJZoj7f2KtCbUOrZRci-19" source="JWJZoj7f2KtCbUOrZRci-39" target="JWJZoj7f2KtCbUOrZRci-39" edge="1">
          <mxGeometry relative="1" as="geometry">
            <mxPoint x="70" y="90" as="sourcePoint" />
            <Array as="points">
              <mxPoint x="65" y="80" />
              <mxPoint x="90" y="80" />
              <mxPoint x="90" y="110" />
            </Array>
          </mxGeometry>
        </mxCell>
        <mxCell id="JWJZoj7f2KtCbUOrZRci-23" value="S&#39;authentifier" style="html=1;verticalAlign=bottom;endArrow=block;curved=0;rounded=0;" parent="1" source="JWJZoj7f2KtCbUOrZRci-18" target="JWJZoj7f2KtCbUOrZRci-19" edge="1">
          <mxGeometry width="80" relative="1" as="geometry">
            <mxPoint x="-30" y="-618" as="sourcePoint" />
            <mxPoint x="50" y="-618" as="targetPoint" />
            <Array as="points">
              <mxPoint x="-520" y="-898" />
            </Array>
          </mxGeometry>
        </mxCell>
        <mxCell id="JWJZoj7f2KtCbUOrZRci-25" value="Authentification réussie" style="html=1;verticalAlign=bottom;endArrow=open;dashed=1;endSize=8;curved=0;rounded=0;" parent="1" source="JWJZoj7f2KtCbUOrZRci-19" target="JWJZoj7f2KtCbUOrZRci-18" edge="1">
          <mxGeometry relative="1" as="geometry">
            <mxPoint x="50" y="-618" as="sourcePoint" />
            <mxPoint x="-30" y="-618" as="targetPoint" />
            <Array as="points">
              <mxPoint x="-500" y="-848" />
            </Array>
          </mxGeometry>
        </mxCell>
        <mxCell id="JWJZoj7f2KtCbUOrZRci-35" value="choisir adresse livraison" style="html=1;verticalAlign=bottom;endArrow=block;curved=0;rounded=0;" parent="1" source="JWJZoj7f2KtCbUOrZRci-19" target="JWJZoj7f2KtCbUOrZRci-18" edge="1">
          <mxGeometry width="80" relative="1" as="geometry">
            <mxPoint x="-30" y="-618" as="sourcePoint" />
            <mxPoint x="50" y="-618" as="targetPoint" />
            <Array as="points">
              <mxPoint x="-520" y="-808" />
            </Array>
            <mxPoint as="offset" />
          </mxGeometry>
        </mxCell>
        <mxCell id="JWJZoj7f2KtCbUOrZRci-41" value="Alternative" style="shape=umlFrame;whiteSpace=wrap;html=1;pointerEvents=0;width=80;height=30;" parent="1" vertex="1">
          <mxGeometry x="-740" y="-788" width="390" height="110" as="geometry" />
        </mxCell>
        <mxCell id="JWJZoj7f2KtCbUOrZRci-42" value="adresse livraison" style="html=1;verticalAlign=bottom;endArrow=open;dashed=1;endSize=8;curved=0;rounded=0;" parent="1" source="JWJZoj7f2KtCbUOrZRci-18" target="JWJZoj7f2KtCbUOrZRci-19" edge="1">
          <mxGeometry relative="1" as="geometry">
            <mxPoint x="90" y="-618" as="sourcePoint" />
            <mxPoint x="10" y="-618" as="targetPoint" />
            <Array as="points">
              <mxPoint x="-520" y="-698" />
            </Array>
            <mxPoint as="offset" />
          </mxGeometry>
        </mxCell>
        <mxCell id="JWJZoj7f2KtCbUOrZRci-43" value="" style="endArrow=none;dashed=1;html=1;rounded=0;exitX=-0.014;exitY=0.555;exitDx=0;exitDy=0;exitPerimeter=0;entryX=1.003;entryY=0.564;entryDx=0;entryDy=0;entryPerimeter=0;" parent="1" source="JWJZoj7f2KtCbUOrZRci-41" target="JWJZoj7f2KtCbUOrZRci-41" edge="1">
          <mxGeometry width="50" height="50" relative="1" as="geometry">
            <mxPoint x="30" y="-598" as="sourcePoint" />
            <mxPoint x="80" y="-648" as="targetPoint" />
          </mxGeometry>
        </mxCell>
        <mxCell id="JWJZoj7f2KtCbUOrZRci-44" value="IF nouvelle adresse&lt;br&gt;ou adresse modifié" style="text;html=1;align=center;verticalAlign=middle;resizable=0;points=[];autosize=1;strokeColor=none;fillColor=none;" parent="1" vertex="1">
          <mxGeometry x="-745" y="-763" width="130" height="40" as="geometry" />
        </mxCell>
        <mxCell id="JWJZoj7f2KtCbUOrZRci-46" value="nouvelle adresse de livraison" style="html=1;verticalAlign=bottom;endArrow=open;dashed=1;endSize=8;curved=0;rounded=0;" parent="1" source="JWJZoj7f2KtCbUOrZRci-18" target="JWJZoj7f2KtCbUOrZRci-19" edge="1">
          <mxGeometry relative="1" as="geometry">
            <mxPoint x="90" y="-618" as="sourcePoint" />
            <mxPoint x="10" y="-618" as="targetPoint" />
            <Array as="points">
              <mxPoint x="-530" y="-738" />
            </Array>
          </mxGeometry>
        </mxCell>
        <mxCell id="JWJZoj7f2KtCbUOrZRci-47" value="ELSE" style="text;html=1;align=center;verticalAlign=middle;resizable=0;points=[];autosize=1;strokeColor=none;fillColor=none;" parent="1" vertex="1">
          <mxGeometry x="-735" y="-720" width="50" height="30" as="geometry" />
        </mxCell>
        <mxCell id="JWJZoj7f2KtCbUOrZRci-48" value="choisir adresse facturation" style="html=1;verticalAlign=bottom;endArrow=block;curved=0;rounded=0;" parent="1" edge="1">
          <mxGeometry width="80" relative="1" as="geometry">
            <mxPoint x="-400.5" y="-648" as="sourcePoint" />
            <mxPoint x="-620.5" y="-648" as="targetPoint" />
          </mxGeometry>
        </mxCell>
        <mxCell id="JWJZoj7f2KtCbUOrZRci-50" value="Alternative" style="shape=umlFrame;whiteSpace=wrap;html=1;pointerEvents=0;width=80;height=30;" parent="1" vertex="1">
          <mxGeometry x="-740" y="-628" width="390" height="130" as="geometry" />
        </mxCell>
        <mxCell id="JWJZoj7f2KtCbUOrZRci-51" value="adresse facturation" style="html=1;verticalAlign=bottom;endArrow=open;dashed=1;endSize=8;curved=0;rounded=0;" parent="1" edge="1">
          <mxGeometry relative="1" as="geometry">
            <mxPoint x="-621.17" y="-518" as="sourcePoint" />
            <mxPoint x="-401.17" y="-518" as="targetPoint" />
            <Array as="points">
              <mxPoint x="-521.17" y="-518" />
            </Array>
            <mxPoint as="offset" />
          </mxGeometry>
        </mxCell>
        <mxCell id="JWJZoj7f2KtCbUOrZRci-52" value="" style="endArrow=none;dashed=1;html=1;rounded=0;entryX=1.013;entryY=0.646;entryDx=0;entryDy=0;entryPerimeter=0;" parent="1" target="JWJZoj7f2KtCbUOrZRci-50" edge="1">
          <mxGeometry width="50" height="50" relative="1" as="geometry">
            <mxPoint x="-750" y="-544" as="sourcePoint" />
            <mxPoint x="78.83000000000004" y="-468" as="targetPoint" />
            <Array as="points" />
          </mxGeometry>
        </mxCell>
        <mxCell id="JWJZoj7f2KtCbUOrZRci-53" value="IF nouvelle adresse&lt;br&gt;ou adresse modifié" style="text;html=1;align=center;verticalAlign=middle;resizable=0;points=[];autosize=1;strokeColor=none;fillColor=none;" parent="1" vertex="1">
          <mxGeometry x="-745" y="-598" width="130" height="40" as="geometry" />
        </mxCell>
        <mxCell id="JWJZoj7f2KtCbUOrZRci-54" value="nouvelle adresse de facturation" style="html=1;verticalAlign=bottom;endArrow=open;dashed=1;endSize=8;curved=0;rounded=0;" parent="1" target="JWJZoj7f2KtCbUOrZRci-38" edge="1">
          <mxGeometry relative="1" as="geometry">
            <mxPoint x="-615" y="-568" as="sourcePoint" />
            <mxPoint x="-395" y="-568" as="targetPoint" />
            <Array as="points" />
          </mxGeometry>
        </mxCell>
        <mxCell id="JWJZoj7f2KtCbUOrZRci-55" value="ELSE" style="text;html=1;align=center;verticalAlign=middle;resizable=0;points=[];autosize=1;strokeColor=none;fillColor=none;" parent="1" vertex="1">
          <mxGeometry x="-736.17" y="-540" width="50" height="30" as="geometry" />
        </mxCell>
        <mxCell id="JWJZoj7f2KtCbUOrZRci-60" value="paiement sécurisé" style="shape=umlLifeline;perimeter=lifelinePerimeter;whiteSpace=wrap;html=1;container=1;dropTarget=0;collapsible=0;recursiveResize=0;outlineConnect=0;portConstraint=eastwest;newEdgeStyle={&quot;curved&quot;:0,&quot;rounded&quot;:0};" parent="1" vertex="1">
          <mxGeometry x="-180" y="-968" width="100" height="810" as="geometry" />
        </mxCell>
        <mxCell id="JWJZoj7f2KtCbUOrZRci-70" value="" style="html=1;points=[[0,0,0,0,5],[0,1,0,0,-5],[1,0,0,0,5],[1,1,0,0,-5]];perimeter=orthogonalPerimeter;outlineConnect=0;targetShapes=umlLifeline;portConstraint=eastwest;newEdgeStyle={&quot;curved&quot;:0,&quot;rounded&quot;:0};" parent="JWJZoj7f2KtCbUOrZRci-60" vertex="1">
          <mxGeometry x="45" y="660" width="10" height="110" as="geometry" />
        </mxCell>
        <mxCell id="JWJZoj7f2KtCbUOrZRci-71" value="" style="html=1;points=[[0,0,0,0,5],[0,1,0,0,-5],[1,0,0,0,5],[1,1,0,0,-5]];perimeter=orthogonalPerimeter;outlineConnect=0;targetShapes=umlLifeline;portConstraint=eastwest;newEdgeStyle={&quot;curved&quot;:0,&quot;rounded&quot;:0};" parent="JWJZoj7f2KtCbUOrZRci-60" vertex="1">
          <mxGeometry x="55" y="680" width="10" height="70" as="geometry" />
        </mxCell>
        <mxCell id="JWJZoj7f2KtCbUOrZRci-72" value="vérification" style="html=1;align=left;spacingLeft=2;endArrow=block;rounded=0;edgeStyle=orthogonalEdgeStyle;curved=0;rounded=0;" parent="JWJZoj7f2KtCbUOrZRci-60" source="JWJZoj7f2KtCbUOrZRci-71" target="JWJZoj7f2KtCbUOrZRci-71" edge="1">
          <mxGeometry relative="1" as="geometry">
            <mxPoint x="60" y="690" as="sourcePoint" />
            <Array as="points">
              <mxPoint x="90" y="690" />
              <mxPoint x="90" y="740" />
            </Array>
            <mxPoint as="offset" />
          </mxGeometry>
        </mxCell>
        <mxCell id="JWJZoj7f2KtCbUOrZRci-61" value="choisir mode paiement" style="html=1;verticalAlign=bottom;endArrow=block;curved=0;rounded=0;" parent="1" edge="1">
          <mxGeometry width="80" relative="1" as="geometry">
            <mxPoint x="-400.5" y="-458" as="sourcePoint" />
            <mxPoint x="-620.5" y="-458" as="targetPoint" />
          </mxGeometry>
        </mxCell>
        <mxCell id="JWJZoj7f2KtCbUOrZRci-62" value="mode paiement" style="html=1;verticalAlign=bottom;endArrow=open;dashed=1;endSize=8;curved=0;rounded=0;" parent="1" edge="1">
          <mxGeometry relative="1" as="geometry">
            <mxPoint x="-620.5" y="-418" as="sourcePoint" />
            <mxPoint x="-400.5" y="-418" as="targetPoint" />
            <Array as="points">
              <mxPoint x="-530" y="-418" />
            </Array>
          </mxGeometry>
        </mxCell>
        <mxCell id="JWJZoj7f2KtCbUOrZRci-63" value="informations paiement" style="html=1;verticalAlign=bottom;endArrow=block;curved=0;rounded=0;" parent="1" source="JWJZoj7f2KtCbUOrZRci-19" target="JWJZoj7f2KtCbUOrZRci-60" edge="1">
          <mxGeometry width="80" relative="1" as="geometry">
            <mxPoint x="10" y="-618" as="sourcePoint" />
            <mxPoint x="90" y="-618" as="targetPoint" />
            <Array as="points">
              <mxPoint x="-280" y="-278" />
            </Array>
          </mxGeometry>
        </mxCell>
        <mxCell id="JWJZoj7f2KtCbUOrZRci-64" value="autorisation" style="html=1;verticalAlign=bottom;endArrow=open;dashed=1;endSize=8;curved=0;rounded=0;" parent="1" source="JWJZoj7f2KtCbUOrZRci-60" target="JWJZoj7f2KtCbUOrZRci-19" edge="1">
          <mxGeometry relative="1" as="geometry">
            <mxPoint x="90" y="-498" as="sourcePoint" />
            <mxPoint x="10" y="-498" as="targetPoint" />
            <Array as="points">
              <mxPoint x="-260" y="-228" />
            </Array>
          </mxGeometry>
        </mxCell>
        <mxCell id="JWJZoj7f2KtCbUOrZRci-66" value="saisir informations paiement" style="html=1;verticalAlign=bottom;endArrow=block;curved=0;rounded=0;" parent="1" source="JWJZoj7f2KtCbUOrZRci-19" target="JWJZoj7f2KtCbUOrZRci-18" edge="1">
          <mxGeometry width="80" relative="1" as="geometry">
            <mxPoint x="10" y="-378" as="sourcePoint" />
            <mxPoint x="90" y="-378" as="targetPoint" />
            <Array as="points">
              <mxPoint x="-490" y="-368" />
            </Array>
          </mxGeometry>
        </mxCell>
        <mxCell id="JWJZoj7f2KtCbUOrZRci-67" value="informations paiement" style="html=1;verticalAlign=bottom;endArrow=open;dashed=1;endSize=8;curved=0;rounded=0;" parent="1" source="JWJZoj7f2KtCbUOrZRci-18" target="JWJZoj7f2KtCbUOrZRci-19" edge="1">
          <mxGeometry relative="1" as="geometry">
            <mxPoint x="90" y="-378" as="sourcePoint" />
            <mxPoint x="10" y="-378" as="targetPoint" />
            <Array as="points">
              <mxPoint x="-510" y="-318" />
            </Array>
          </mxGeometry>
        </mxCell>
        <mxCell id="JWJZoj7f2KtCbUOrZRci-68" value="confirmation / e-mail récapitulatif&amp;nbsp;" style="html=1;verticalAlign=bottom;endArrow=block;curved=0;rounded=0;" parent="1" source="JWJZoj7f2KtCbUOrZRci-19" target="JWJZoj7f2KtCbUOrZRci-18" edge="1">
          <mxGeometry width="80" relative="1" as="geometry">
            <mxPoint x="10" y="-138" as="sourcePoint" />
            <mxPoint x="90" y="-138" as="targetPoint" />
            <Array as="points">
              <mxPoint x="-500" y="-178" />
            </Array>
          </mxGeometry>
        </mxCell>
        <mxCell id="D-25L0sgKf-YVh1EjRVx-1" value="Diagramme de sequence_commander" style="text;html=1;align=center;verticalAlign=middle;resizable=0;points=[];autosize=1;strokeColor=none;fillColor=none;" vertex="1" parent="1">
          <mxGeometry x="-535" y="-1060" width="230" height="30" as="geometry" />
        </mxCell>
      </root>
    </mxGraphModel>
  </diagram>
</mxfile>
